<svg width="47" height="47" viewBox="0 0 47 47" fill="none" xmlns="http://www.w3.org/2000/svg">
<rect x="0.715088" y="0.588867" width="45.67" height="45.6684" rx="17" fill="#53B175"/>
<path d="M32.05 23.4231C32.05 23.7989 31.9059 24.1622 31.6365 24.4253C31.3733 24.6947 31.0099 24.845 30.6339 24.845H24.9693V30.5075C24.9693 30.8833 24.8189 31.2466 24.5495 31.5097C24.2863 31.7728 23.9291 31.9231 23.5532 31.9231C23.1772 31.9231 22.8138 31.7728 22.5506 31.5097C22.2812 31.2466 22.1308 30.8833 22.1308 30.5075V24.845H16.4662C16.0902 24.845 15.7268 24.6947 15.4636 24.4253C15.2004 24.1622 15.05 23.7989 15.05 23.4231C15.05 23.0473 15.2004 22.6902 15.4636 22.4209C15.7268 22.1578 16.0902 22.0075 16.4662 22.0075H22.1308V16.345C22.1308 15.9692 22.2812 15.6059 22.5506 15.3428C22.8138 15.0734 23.1772 14.9231 23.5532 14.9231C23.9291 14.9231 24.2863 15.0734 24.5495 15.3428C24.8189 15.6059 24.9693 15.9692 24.9693 16.345V22.0075H30.6339C31.0099 22.0075 31.3733 22.1578 31.6365 22.4209C31.9059 22.6902 32.05 23.0473 32.05 23.4231Z" fill="white"/>
</svg>