<svg width="11" height="19" viewBox="0 0 11 19" fill="none" xmlns="http://www.w3.org/2000/svg">
<g clip-path="url(#clip0_14_557)">
<path d="M9.60706 16.6606C9.84174 16.9177 9.97212 17.256 9.95908 17.6079C9.95908 17.9598 9.8287 18.2846 9.58098 18.5418C9.3463 18.7854 9.02036 18.9342 8.68137 18.9342C8.34239 18.9342 8.01645 18.8124 7.76873 18.5688L0.389327 10.9087C0.271987 10.7869 0.180722 10.638 0.115533 10.4756C0.0503439 10.3132 0.0112305 10.1372 0.0112305 9.9613C0.0112305 9.78536 0.0503439 9.60942 0.115533 9.43348C0.180722 9.27108 0.271987 9.1222 0.389327 9.0004L7.76873 1.34025C7.88607 1.21845 8.02948 1.11017 8.18594 1.04251C8.35543 0.974836 8.52492 0.934235 8.69441 0.934235C8.8639 0.934235 9.04643 0.961302 9.20289 1.02897C9.35934 1.09664 9.50276 1.20491 9.63313 1.32672C9.75047 1.44852 9.84174 1.61093 9.90693 1.77333C9.98516 1.93574 10.0112 2.11168 10.0112 2.30115C10.0112 2.47709 9.97212 2.65303 9.90693 2.81544C9.84174 2.97784 9.73744 3.12672 9.60706 3.26205L3.15334 9.9613L4.3789 11.2199L9.60706 16.6606Z" fill="#181725"/>
</g>
<defs>
<clipPath id="clip0_14_557">
<rect width="10" height="18" fill="white" transform="translate(0.0112305 0.934235)"/>
</clipPath>
</defs>
</svg>
