<svg width="9" height="15" viewBox="0 0 9 15" fill="none" xmlns="http://www.w3.org/2000/svg">
<g clip-path="url(#clip0_12_389)">
<path d="M0.515798 2.68218C0.318667 2.48218 0.209149 2.21902 0.220101 1.94534C0.220101 1.67165 0.329618 1.41902 0.537702 1.21902C0.734834 1.02955 1.00863 0.913756 1.29337 0.913756C1.57812 0.913756 1.85191 1.00849 2.06 1.19797L8.25869 7.15586C8.35726 7.2506 8.43392 7.36639 8.48868 7.4927C8.54344 7.61902 8.57629 7.75586 8.57629 7.8927C8.57629 8.02955 8.54344 8.16639 8.48868 8.30323C8.43392 8.42955 8.35726 8.54534 8.25869 8.64007L2.06 14.598C1.96143 14.6927 1.84096 14.7769 1.70954 14.8295C1.56717 14.8822 1.42479 14.9138 1.28242 14.9138C1.14005 14.9138 0.986722 14.8927 0.855301 14.8401C0.72388 14.7874 0.603411 14.7032 0.493894 14.6085C0.395328 14.5138 0.318666 14.3874 0.263907 14.2611C0.198196 14.1348 0.176292 13.998 0.176293 13.8506C0.176293 13.7138 0.209148 13.5769 0.263907 13.4506C0.318666 13.3243 0.40628 13.2085 0.515797 13.1032L5.93692 7.8927L4.90745 6.91376L0.515798 2.68218Z" fill="#181725"/>
</g>
<defs>
<clipPath id="clip0_12_389">
<rect width="8.4" height="14" fill="white" transform="translate(8.57629 14.9138) rotate(-180)"/>
</clipPath>
</defs>
</svg>
