<svg width="21" height="23" viewBox="0 0 21 23" fill="none" xmlns="http://www.w3.org/2000/svg">
<path d="M4.50732 1.14722L1.50732 5.14722V19.1472C1.50732 19.6776 1.71804 20.1864 2.09311 20.5614C2.46818 20.9365 2.97689 21.1472 3.50732 21.1472H17.5073C18.0378 21.1472 18.5465 20.9365 18.9215 20.5614C19.2966 20.1864 19.5073 19.6776 19.5073 19.1472V5.14722L16.5073 1.14722H4.50732Z" stroke="#181725" stroke-width="2" stroke-linecap="round" stroke-linejoin="round"/>
<path d="M1.50732 5.14722H19.5073" stroke="#181725" stroke-width="2" stroke-linecap="round" stroke-linejoin="round"/>
<path d="M14.5073 9.14722C14.5073 10.2081 14.0859 11.2255 13.3358 11.9756C12.5856 12.7258 11.5682 13.1472 10.5073 13.1472C9.44646 13.1472 8.42904 12.7258 7.6789 11.9756C6.92875 11.2255 6.50732 10.2081 6.50732 9.14722" stroke="#181725" stroke-width="2" stroke-linecap="round" stroke-linejoin="round"/>
</svg>
