<svg width="15" height="16" viewBox="0 0 15 16" fill="none" xmlns="http://www.w3.org/2000/svg">
<path d="M14.272 13.192L14.271 13.191L9.87921 8.9593L9.87898 8.95907L8.88737 8.01613L14.271 2.84164C14.384 2.73306 14.4761 2.61198 14.5341 2.4781C14.5911 2.34655 14.6259 2.20294 14.6259 2.05819C14.6259 1.90653 14.6034 1.7615 14.5334 1.62615C14.477 1.49647 14.3973 1.36455 14.2929 1.26422L14.2929 1.26417L14.291 1.26246C14.1791 1.16569 14.0539 1.07771 13.9154 1.02227C13.7764 0.966595 13.6164 0.944995 13.4697 0.944995C13.3199 0.944995 13.1716 0.978215 13.0252 1.03231L13.0252 1.03229L13.024 1.03279C12.8855 1.08824 12.7598 1.17641 12.6574 1.27475L6.4585 7.23288C6.3546 7.33274 6.27435 7.45424 6.21728 7.58589L6.21726 7.58588L6.21673 7.5872C6.16032 7.72819 6.12554 7.87145 6.12554 8.01632C6.12554 8.16107 6.16025 8.30468 6.21728 8.43622C6.27435 8.56787 6.3546 8.68938 6.4585 8.78924L12.6574 14.7474L12.6574 14.7474L12.6584 14.7483C12.8768 14.9471 13.163 15.0455 13.4587 15.0455C13.7568 15.0455 14.0429 14.9245 14.2491 14.7263C14.4663 14.5176 14.5818 14.2525 14.5821 13.9649C14.5933 13.6766 14.4777 13.4007 14.272 13.192Z" fill="#B3B3B3" stroke="#B3B3B3" stroke-width="0.1"/>
<path d="M0.717788 2.79862L0.718705 2.79952L5.11053 7.03127L5.11077 7.0315L6.10238 7.97444L0.718749 13.1489C0.605776 13.2575 0.513662 13.3786 0.455623 13.5125C0.398597 13.644 0.363879 13.7876 0.363879 13.9324C0.363879 14.084 0.386319 14.2291 0.456324 14.3644C0.512726 14.4941 0.592464 14.626 0.696845 14.7263L0.696797 14.7264L0.698782 14.7281C0.810643 14.8249 0.935877 14.9129 1.07433 14.9683C1.21334 15.024 1.3734 15.0456 1.52005 15.0456C1.66984 15.0456 1.81819 15.0124 1.96452 14.9583L1.96453 14.9583L1.96578 14.9578C2.10422 14.9023 2.22999 14.8142 2.3323 14.7158L8.53124 8.75769C8.63515 8.65783 8.7154 8.53633 8.77247 8.40468L8.77249 8.40469L8.77301 8.40337C8.82943 8.26238 8.86421 8.11912 8.86421 7.97425C8.86421 7.8295 8.82949 7.68589 8.77247 7.55435C8.7154 7.4227 8.63515 7.30119 8.53124 7.20133L2.33231 1.2432L2.33232 1.24319L2.33132 1.24228C2.11299 1.04348 1.82675 0.945027 1.531 0.945027C1.23294 0.945027 0.946823 1.06609 0.740655 1.26425C0.52347 1.473 0.407955 1.7381 0.407689 2.02565C0.396445 2.31393 0.512006 2.58984 0.717788 2.79862Z" fill="#B3B3B3" stroke="#B3B3B3" stroke-width="0.1"/>
</svg>
