<svg width="25" height="24" viewBox="0 0 25 24" fill="none" xmlns="http://www.w3.org/2000/svg">
<g clip-path="url(#clip0_1_275)">
<path d="M5.68544 11.0097L13.5095 18.8338L21.3336 11.0097C22.0254 10.3179 22.414 9.37973 22.414 8.40145C22.414 7.42317 22.0254 6.48496 21.3336 5.79321C20.9911 5.4507 20.5845 5.179 20.137 4.99363C19.6894 4.80826 19.2098 4.71285 18.7254 4.71285C17.7471 4.71285 16.8089 5.10147 16.1172 5.79321L13.5095 8.40084L10.9019 5.79444C10.2084 5.11198 9.27332 4.7312 8.30033 4.73504C7.32734 4.73889 6.39529 5.12705 5.7072 5.81498C5.01911 6.50291 4.63073 7.43487 4.62665 8.40786C4.62257 9.38084 5.00314 10.316 5.68544 11.0097ZM12.6403 4.05357L13.5095 4.92278L14.3787 4.05357C14.9487 3.47865 15.6265 3.02196 16.3734 2.70971C17.1203 2.39747 17.9215 2.23582 18.731 2.23405C19.5405 2.23227 20.3424 2.39041 21.0906 2.69938C21.8389 3.00836 22.5187 3.46207 23.0911 4.03449C23.6636 4.60691 24.1173 5.28675 24.4262 6.03499C24.7352 6.78323 24.8934 7.58513 24.8916 8.39465C24.8898 9.20417 24.7282 10.0054 24.4159 10.7522C24.1037 11.4991 23.647 12.177 23.0721 12.7469L14.38 21.4402C14.2658 21.5545 14.1302 21.6452 13.981 21.707C13.8317 21.7689 13.6717 21.8008 13.5102 21.8008C13.3486 21.8008 13.1886 21.7689 13.0394 21.707C12.8901 21.6452 12.7545 21.5545 12.6403 21.4402L3.94702 12.7481C3.36429 12.18 2.90015 11.5019 2.58153 10.7531C2.26291 10.0042 2.09616 9.19955 2.09095 8.38576C2.08573 7.57196 2.24216 6.76523 2.55116 6.01237C2.86015 5.2595 3.31556 4.57548 3.89097 3.99999C4.46638 3.42449 5.15034 2.96899 5.90316 2.65988C6.65599 2.35078 7.4627 2.19424 8.27649 2.19934C9.09029 2.20444 9.89497 2.37108 10.6439 2.68959C11.3928 3.0081 12.0709 3.47214 12.6391 4.0548L12.6403 4.05357Z" fill="#181725"/>
</g>
<defs>
<clipPath id="clip0_1_275">
<rect width="24" height="24" fill="white" transform="translate(0.991211)"/>
</clipPath>
</defs>
</svg>
