<svg width="25" height="25" viewBox="0 0 25 25" fill="none" xmlns="http://www.w3.org/2000/svg">
<path d="M8.61612 12.5881C8.75695 12.5356 8.90839 12.5083 9.0615 12.5078C9.21461 12.5074 9.36628 12.5337 9.50754 12.5853C9.6488 12.6368 9.77678 12.7126 9.88392 12.8081C9.99106 12.9036 10.0752 13.0168 10.1313 13.1412C10.1875 13.2656 10.2145 13.3985 10.2108 13.5321C10.207 13.6657 10.1727 13.7974 10.1097 13.9192C10.0467 14.041 9.95638 14.1506 9.84406 14.2415C9.73173 14.3323 9.59969 14.4025 9.45573 14.4481C8.69005 14.7114 8.03289 15.1699 7.56976 15.7638C7.10663 16.3577 6.85897 17.0596 6.85901 17.7781V19.5181C6.85901 19.7833 6.97969 20.0376 7.1945 20.2252C7.40931 20.4127 7.70066 20.5181 8.00445 20.5181H17.168C17.4718 20.5181 17.7632 20.4127 17.978 20.2252C18.1928 20.0376 18.3135 19.7833 18.3135 19.5181V17.8711C18.3136 17.1295 18.0556 16.4055 17.5736 15.7949C17.0917 15.1843 16.4085 14.716 15.6148 14.4521C15.4699 14.4082 15.3367 14.3394 15.2228 14.2497C15.109 14.16 15.017 14.0513 14.9522 13.9299C14.8874 13.8086 14.8511 13.6772 14.8456 13.5434C14.8401 13.4096 14.8654 13.2763 14.92 13.1512C14.9746 13.0261 15.0574 12.9119 15.1635 12.8152C15.2696 12.7186 15.3969 12.6416 15.5378 12.5887C15.6786 12.5358 15.8302 12.5081 15.9835 12.5074C16.1368 12.5066 16.2888 12.5326 16.4303 12.5841C17.6578 12.9922 18.7142 13.7164 19.4596 14.6606C20.2051 15.6047 20.6043 16.7244 20.6044 17.8711V19.5181C20.6044 20.3137 20.2423 21.0768 19.5979 21.6394C18.9534 22.202 18.0794 22.5181 17.168 22.5181H8.00445C7.09308 22.5181 6.21903 22.202 5.57459 21.6394C4.93016 21.0768 4.56812 20.3137 4.56812 19.5181V17.7781C4.56827 16.6582 4.95445 15.5643 5.6764 14.6387C6.39836 13.7131 7.42268 12.9985 8.61612 12.5881ZM12.5862 2.51807C13.8014 2.51807 14.9668 2.93949 15.826 3.68964C16.6853 4.43978 17.168 5.4572 17.168 6.51807V8.51807C17.168 9.57893 16.6853 10.5963 15.826 11.3465C14.9668 12.0966 13.8014 12.5181 12.5862 12.5181C11.3711 12.5181 10.2057 12.0966 9.34642 11.3465C8.48717 10.5963 8.00445 9.57893 8.00445 8.51807V6.51807C8.00445 5.4572 8.48717 4.43978 9.34642 3.68964C10.2057 2.93949 11.3711 2.51807 12.5862 2.51807ZM12.5862 4.51807C11.9787 4.51807 11.396 4.72878 10.9663 5.10385C10.5367 5.47893 10.2953 5.98763 10.2953 6.51807V8.51807C10.2953 9.0485 10.5367 9.55721 10.9663 9.93228C11.396 10.3074 11.9787 10.5181 12.5862 10.5181C13.1938 10.5181 13.7765 10.3074 14.2061 9.93228C14.6358 9.55721 14.8771 9.0485 14.8771 8.51807V6.51807C14.8771 5.98763 14.6358 5.47893 14.2061 5.10385C13.7765 4.72878 13.1938 4.51807 12.5862 4.51807Z" fill="#181725"/>
</svg>
