<svg width="21" height="16" viewBox="0 0 21 16" fill="none" xmlns="http://www.w3.org/2000/svg">
<path d="M2.50732 2.43074H2.40732V2.53074V13.2564V13.3564H2.50732H18.5073H18.6073V13.2564V2.53074V2.43074H18.5073H2.50732ZM2.50732 0.48562H18.5073C19.0089 0.48562 19.4914 0.699258 19.8484 1.08211C20.2056 1.46519 20.4073 1.98617 20.4073 2.53074V13.2564C20.4073 13.8009 20.2056 14.3219 19.8484 14.705C19.4914 15.0878 19.0089 15.3015 18.5073 15.3015H2.50732C2.00576 15.3015 1.5232 15.0878 1.16625 14.705C0.809085 14.3219 0.607324 13.8009 0.607324 13.2564V2.53074C0.607324 1.98617 0.809085 1.46519 1.16625 1.08211C1.5232 0.699258 2.00576 0.48562 2.50732 0.48562ZM11.5073 4.77587H16.5073C16.7437 4.77587 16.9719 4.8765 17.1413 5.05821C17.3109 5.24015 17.4073 5.48832 17.4073 5.74843C17.4073 6.00854 17.3109 6.25671 17.1413 6.43865C16.9719 6.62035 16.7437 6.72099 16.5073 6.72099H11.5073C11.271 6.72099 11.0428 6.62035 10.8734 6.43865C10.7037 6.25671 10.6073 6.00854 10.6073 5.74843C10.6073 5.48832 10.7037 5.24015 10.8734 5.05821C11.0428 4.8765 11.271 4.77587 11.5073 4.77587ZM11.5073 7.99355H16.5073C16.7437 7.99355 16.9719 8.09419 17.1413 8.27589C17.3109 8.45783 17.4073 8.706 17.4073 8.96611C17.4073 9.22622 17.3109 9.4744 17.1413 9.65634C16.9719 9.83804 16.7437 9.93867 16.5073 9.93867H11.5073C11.271 9.93867 11.0428 9.83804 10.8734 9.65634C10.7037 9.4744 10.6073 9.22622 10.6073 8.96611C10.6073 8.706 10.7037 8.45783 10.8734 8.27589C11.0428 8.09419 11.271 7.99355 11.5073 7.99355Z" fill="#181725" stroke="white" stroke-width="0.2"/>
<g clip-path="url(#clip0_1_1302)">
<path d="M7.25762 5.58134V6.14404C7.25762 6.44845 7.12003 6.73442 6.88155 6.93736C6.63389 7.14953 6.31285 7.26945 5.97347 7.26945C5.63409 7.26945 5.30389 7.14953 5.0654 6.93736C4.82692 6.73442 4.68933 6.44845 4.68933 6.14404V5.58134C4.68933 5.28615 4.82692 5.00019 5.0654 4.78802C5.30389 4.57585 5.63409 4.45593 5.97347 4.45593C6.31285 4.45593 6.63389 4.57585 6.88155 4.78802C7.12003 5.00019 7.25762 5.28615 7.25762 5.58134Z" fill="#181725"/>
<path d="M8.2207 8.90212V9.36335C8.2207 9.58475 8.11063 9.80614 7.93635 9.96296C7.7529 10.1198 7.50524 10.212 7.25759 10.212H4.6893C4.43247 10.212 4.18482 10.1198 4.01054 9.96296C3.82709 9.80614 3.7262 9.58475 3.7262 9.36335V8.87445C3.7262 8.56081 3.83627 8.24717 4.03806 7.98888C4.23985 7.73059 4.5242 7.52765 4.85441 7.40773C4.90027 7.39851 4.93696 7.38928 4.98282 7.38928C5.02868 7.38928 5.06537 7.39851 5.11124 7.40773H6.7531C6.77145 7.40773 6.78062 7.40773 6.78979 7.41696C6.78979 7.40773 6.79897 7.40773 6.79897 7.40773C6.94573 7.39851 7.03745 7.40773 7.04662 7.40773C7.39518 7.52765 7.68869 7.73059 7.89966 7.99811C8.10145 8.26562 8.2207 8.57926 8.2207 8.90212Z" fill="#181725"/>
</g>
<defs>
<clipPath id="clip0_1_1302">
<rect width="6" height="7.68429" fill="white" transform="translate(3.50732 4.45593)"/>
</clipPath>
</defs>
</svg>
