<svg width="19" height="19" viewBox="0 0 19 19" fill="none" xmlns="http://www.w3.org/2000/svg">
<path d="M8.7068 14.5714C9.49473 14.5714 10.2749 14.4162 11.0029 14.1147C11.7309 13.8132 12.3923 13.3712 12.9494 12.8141C13.5066 12.2569 13.9486 11.5955 14.2501 10.8675C14.5516 10.1396 14.7068 9.35936 14.7068 8.57143C14.7068 7.78349 14.5516 7.00328 14.2501 6.27533C13.9486 5.54737 13.5066 4.88594 12.9494 4.32879C12.3923 3.77163 11.7309 3.32968 11.0029 3.02815C10.2749 2.72662 9.49473 2.57143 8.7068 2.57143C7.1155 2.57143 5.58938 3.20357 4.46416 4.32879C3.33894 5.454 2.7068 6.98013 2.7068 8.57143C2.7068 10.1627 3.33894 11.6888 4.46416 12.8141C5.58938 13.9393 7.1155 14.5714 8.7068 14.5714ZM15.0268 13.4774L18.6068 17.0574C18.7022 17.1497 18.7783 17.2601 18.8307 17.3822C18.883 17.5042 18.9105 17.6355 18.9115 17.7682C18.9126 17.901 18.8872 18.0327 18.8368 18.1555C18.7865 18.2784 18.7121 18.39 18.6182 18.4838C18.5242 18.5776 18.4125 18.6518 18.2896 18.702C18.1667 18.7522 18.035 18.7774 17.9022 18.7762C17.7694 18.7749 17.6382 18.7472 17.5162 18.6948C17.3943 18.6423 17.284 18.566 17.1918 18.4704L13.6118 14.8904C12.0043 16.1383 9.9816 16.7266 7.95556 16.5356C5.92952 16.3446 4.05241 15.3887 2.70635 13.8625C1.3603 12.3362 0.646487 10.3544 0.710228 8.32035C0.773969 6.28633 1.61047 4.35305 3.04945 2.91407C4.48843 1.4751 6.4217 0.638593 8.45573 0.574852C10.4897 0.511111 12.4716 1.22492 13.9979 2.57098C15.5241 3.91703 16.48 5.79414 16.671 7.82018C16.862 9.84622 16.2737 11.8689 15.0258 13.4764L15.0268 13.4774Z" fill="#181B19"/>
</svg>
