<svg width="180" height="180" viewBox="0 0 180 180" fill="none" xmlns="http://www.w3.org/2000/svg">
<g clip-path="url(#clip0_47_3362)">
<path fill-rule="evenodd" clip-rule="evenodd" d="M172.75 74.3843C172.75 71.1791 170.987 68.2334 168.163 66.7179L87.6837 23.534C85.1145 22.1553 82.0255 22.1553 79.4563 23.534L8.67803 61.5125C2.5624 64.7941 2.5624 73.5639 8.67803 76.8455L79.4563 114.824C82.0255 116.203 85.1145 116.203 87.6837 114.824L159.376 76.3551C160.342 75.8368 161.511 76.5366 161.511 77.6329V111.907C157.421 114.013 154.624 118.277 154.624 123.194C154.624 130.202 160.304 135.882 167.312 135.882C174.319 135.882 180 130.202 180 123.194C180 118.133 177.036 113.763 172.75 111.727V74.3843ZM137.948 109.625C137.948 106.336 134.439 104.237 131.541 105.792L87.6837 129.325C85.1145 130.703 82.0255 130.703 79.4563 129.325L35.9619 105.986C33.0638 104.431 29.5548 106.531 29.5548 109.82V130.695C29.5548 133.9 31.3171 136.846 34.1415 138.361L75.3426 160.469C80.481 163.226 86.659 163.226 91.7975 160.469L133.361 138.167C136.185 136.651 137.948 133.706 137.948 130.5V109.625Z" fill="white"/>
</g>
<defs>
<clipPath id="clip0_47_3362">
<rect width="180" height="180" fill="white"/>
</clipPath>
</defs>
</svg>
