<svg width="94" height="15" viewBox="0 0 94 15" fill="none" xmlns="http://www.w3.org/2000/svg">
<path d="M8.24629 11.8031L3.69777 14.1949L4.56651 9.12988L0.885254 5.5422L5.97093 4.80315L8.24629 0.194946L10.5209 4.80315L15.6066 5.5422L11.9261 9.12988L12.7955 14.1949L8.24629 11.8031Z" fill="#F3603F"/>
<path d="M27.6835 11.8032L23.135 14.195L24.0037 9.12991L20.3225 5.54223L25.4082 4.80318L27.6835 0.194977L29.9581 4.80318L35.0438 5.54223L31.3633 9.12991L32.2328 14.195L27.6835 11.8032Z" fill="#F3603F"/>
<path d="M47.1209 11.8032L42.5724 14.195L43.4411 9.12991L39.7599 5.54223L44.8456 4.80318L47.1209 0.194977L49.3956 4.80318L54.4812 5.54223L50.8007 9.12991L51.6702 14.195L47.1209 11.8032Z" fill="#F3603F"/>
<path d="M66.5583 11.8032L62.0098 14.195L62.8786 9.12991L59.1973 5.54223L64.283 4.80318L66.5583 0.194977L68.833 4.80318L73.9186 5.54223L70.2381 9.12991L71.1076 14.195L66.5583 11.8032Z" fill="#F3603F"/>
<path d="M85.9958 11.8032L81.4472 14.195L82.316 9.12991L78.6347 5.54223L83.7204 4.80318L85.9958 0.194977L88.2704 4.80318L93.3561 5.54223L89.6755 9.12991L90.545 14.195L85.9958 11.8032Z" fill="#F3603F"/>
</svg>
