<svg width="25" height="25" viewBox="0 0 25 25" fill="none" xmlns="http://www.w3.org/2000/svg">
<path d="M9.7063 9.75407C10.2363 10.2291 10.9383 10.5181 11.7063 10.5181H13.7063C14.4444 10.5191 15.1568 10.2469 15.7063 9.75407H9.7063ZM9.7063 9.75407C9.15684 10.2469 8.44443 10.5191 7.7063 10.5181L9.7063 9.75407ZM8.7563 4.51807V4.46807H8.7063H5.7063C5.42782 4.46807 5.16075 4.57869 4.96384 4.7756C4.76692 4.97252 4.6563 5.23959 4.6563 5.51807V7.51807C4.6563 7.79654 4.76692 8.06362 4.96384 8.26053C5.16075 8.45744 5.42782 8.56807 5.7063 8.56807H7.7063C7.98478 8.56807 8.25185 8.45744 8.44876 8.26053C8.64567 8.06362 8.7563 7.79654 8.7563 7.51807V4.51807ZM5.7163 10.4681H5.6663V10.5181V20.4831V20.5331H5.7163H7.7063H7.7563V20.4831V15.5181C7.7563 15.0009 7.96174 14.5049 8.32744 14.1392C8.69314 13.7735 9.18913 13.5681 9.7063 13.5681H11.7063C12.2235 13.5681 12.7195 13.7735 13.0852 14.1392C13.4509 14.5049 13.6563 15.0009 13.6563 15.5181V20.4831V20.5331H13.7063H19.7193H19.7693V20.4831V10.5181V10.4681H19.7193H17.7063C16.9511 10.4681 16.2608 10.1839 15.7397 9.71683L15.7063 9.68691L15.6729 9.71685C15.1326 10.2015 14.4322 10.4691 13.7064 10.4681H13.7063H11.7063C10.9511 10.4681 10.2608 10.1839 9.73967 9.71683L9.70628 9.68691L9.67291 9.71685C9.13264 10.2015 8.43215 10.4691 7.70637 10.4681H7.7063H5.7163ZM3.71447 9.69519C3.41803 9.42442 3.18 9.09573 3.0152 8.72925C2.84397 8.34848 2.75572 7.93564 2.7563 7.51814V7.51807V5.51807C2.7563 4.73568 3.0671 3.98533 3.62033 3.4321C4.17357 2.87887 4.92391 2.56807 5.7063 2.56807H19.7063C20.4887 2.56807 21.239 2.87887 21.7923 3.4321C22.3455 3.98533 22.6563 4.73568 22.6563 5.51807V7.51807C22.6563 8.3854 22.2827 9.1661 21.6858 9.70598L21.6693 9.72087V9.74307V20.4831C21.6693 21.0002 21.4639 21.4962 21.0982 21.8619C20.7325 22.2276 20.2365 22.4331 19.7193 22.4331H12.0793V22.4322L12.07 22.4339C11.9501 22.4566 11.8283 22.468 11.7063 22.4681H9.7063C9.58427 22.468 9.4625 22.4566 9.34259 22.4339L9.34275 22.4331H9.3333H5.7173C5.20013 22.4331 4.70414 22.2276 4.33844 21.8619C3.97274 21.4962 3.7673 21.0002 3.7673 20.4831V9.76307V9.64237L3.71447 9.69519ZM11.7563 15.5181V15.4681H11.7063H9.7063H9.6563V15.5181V20.4831V20.5331H9.7063H11.7063V20.4841H11.7563V20.4831V20.4331V15.5181ZM14.7563 4.51807V4.46807H14.7063H10.7063H10.6563V4.51807V7.51807C10.6563 7.79654 10.7669 8.06362 10.9638 8.26053C11.1607 8.45744 11.4278 8.56807 11.7063 8.56807H13.7063C13.9848 8.56807 14.2518 8.45744 14.4488 8.26053C14.6457 8.06362 14.7563 7.79654 14.7563 7.51807V4.51807ZM16.7063 4.46807H16.6563V4.51807V7.51807C16.6563 7.79654 16.7669 8.06362 16.9638 8.26053C17.1607 8.45744 17.4278 8.56807 17.7063 8.56807H19.7063C19.9848 8.56807 20.2518 8.45744 20.4488 8.26053C20.6457 8.06362 20.7563 7.79654 20.7563 7.51807V5.51807C20.7563 5.23959 20.6457 4.97252 20.4488 4.7756C20.2518 4.57869 19.9848 4.46807 19.7063 4.46807H16.7063ZM16.7063 13.5681H17.7063C17.9583 13.5681 18.1999 13.6682 18.378 13.8463C18.5562 14.0245 18.6563 14.2661 18.6563 14.5181V17.5181C18.6563 17.77 18.5562 18.0117 18.378 18.1898C18.1999 18.368 17.9583 18.4681 17.7063 18.4681H16.7063C16.4543 18.4681 16.2127 18.368 16.0345 18.1898C15.8564 18.0117 15.7563 17.77 15.7563 17.5181V14.5181C15.7563 14.2661 15.8564 14.0245 16.0345 13.8463C16.2127 13.6682 16.4543 13.5681 16.7063 13.5681Z" fill="#181725" stroke="white" stroke-width="0.1"/>
</svg>
