<svg width="29" height="19" viewBox="0 0 29 19" fill="none" xmlns="http://www.w3.org/2000/svg">
<path d="M18.2712 14.2376C19.0591 14.2376 19.8393 14.0824 20.5673 13.7808C21.2952 13.4793 21.9567 13.0374 22.5138 12.4802C23.071 11.9231 23.5129 11.2616 23.8144 10.5337C24.116 9.80571 24.2712 9.0255 24.2712 8.23756C24.2712 7.44963 24.116 6.66942 23.8144 5.94146C23.5129 5.21351 23.071 4.55207 22.5138 3.99492C21.9567 3.43777 21.2952 2.99581 20.5673 2.69429C19.8393 2.39276 19.0591 2.23756 18.2712 2.23756C16.6799 2.23756 15.1537 2.8697 14.0285 3.99492C12.9033 5.12014 12.2712 6.64627 12.2712 8.23756C12.2712 9.82886 12.9033 11.355 14.0285 12.4802C15.1537 13.6054 16.6799 14.2376 18.2712 14.2376ZM24.5912 13.1436L28.1712 16.7236C28.2666 16.8159 28.3427 16.9263 28.395 17.0483C28.4473 17.1704 28.4748 17.3016 28.4759 17.4344C28.477 17.5672 28.4516 17.6988 28.4012 17.8217C28.3508 17.9445 28.2765 18.0561 28.1825 18.15C28.0886 18.2438 27.9769 18.318 27.8539 18.3682C27.731 18.4183 27.5993 18.4436 27.4665 18.4423C27.3338 18.4411 27.2026 18.4134 27.0806 18.3609C26.9586 18.3084 26.8483 18.2321 26.7562 18.1366L23.1762 14.5566C21.5686 15.8044 19.546 16.3927 17.5199 16.2018C15.4939 16.0108 13.6168 15.0549 12.2707 13.5286C10.9247 12.0024 10.2108 10.0205 10.2746 7.98649C10.3383 5.95247 11.1748 4.01919 12.6138 2.58021C14.0528 1.14123 15.9861 0.304731 18.0201 0.24099C20.0541 0.177248 22.036 0.89106 23.5622 2.23711C25.0885 3.58317 26.0444 5.46028 26.2354 7.48632C26.4263 9.51236 25.838 11.535 24.5902 13.1426L24.5912 13.1436Z" fill="#181725"/>
<rect x="0.126633" y="0.237061" width="8.85499" height="2.39923" rx="1.19961" fill="#181725"/>
<rect x="0.126633" y="7.67529" width="6.46414" height="2.39923" rx="1.19961" fill="#181725"/>
<rect x="0.126633" y="15.1139" width="8.85499" height="2.39923" rx="1.19961" fill="#181725"/>
</svg>
