<svg width="23" height="21" viewBox="0 0 23 21" fill="none" xmlns="http://www.w3.org/2000/svg">
<path d="M8.9322 20.518C8.28365 20.518 7.66166 20.2604 7.20307 19.8018C6.74447 19.3432 6.48684 18.7212 6.48684 18.0726C6.48684 17.4241 6.74447 16.8021 7.20307 16.3435C7.66166 15.8849 8.28365 15.6273 8.9322 15.6273C9.58075 15.6273 10.2027 15.8849 10.6613 16.3435C11.1199 16.8021 11.3776 17.4241 11.3776 18.0726C11.3776 18.7212 11.1199 19.3432 10.6613 19.8018C10.2027 20.2604 9.58075 20.518 8.9322 20.518ZM17.491 20.518C16.8424 20.518 16.2204 20.2604 15.7618 19.8018C15.3032 19.3432 15.0456 18.7212 15.0456 18.0726C15.0456 17.4241 15.3032 16.8021 15.7618 16.3435C16.2204 15.8849 16.8424 15.6273 17.491 15.6273C18.1395 15.6273 18.7615 15.8849 19.2201 16.3435C19.6787 16.8021 19.9363 17.4241 19.9363 18.0726C19.9363 18.7212 19.6787 19.3432 19.2201 19.8018C18.7615 20.2604 18.1395 20.518 17.491 20.518ZM1.54965 3.3063C1.24442 3.29645 0.954986 3.16828 0.742554 2.94888C0.530121 2.72949 0.411346 2.43607 0.411346 2.13069C0.411346 1.8253 0.530121 1.53188 0.742554 1.31249C0.954986 1.09309 1.24442 0.964923 1.54965 0.955078L2.95696 0.955078C4.05981 0.955078 5.01351 1.72048 5.25315 2.79644L6.78517 9.69481C7.02482 10.7708 7.97851 11.5362 9.08137 11.5362H18.2662L20.0293 4.48129H8.6033C8.30094 4.4675 8.01554 4.33768 7.80646 4.11883C7.59737 3.89999 7.4807 3.60897 7.4807 3.3063C7.4807 3.00363 7.59737 2.7126 7.80646 2.49376C8.01554 2.27492 8.30094 2.1451 8.6033 2.1313H20.0293C20.3867 2.13119 20.7394 2.21258 21.0607 2.36927C21.382 2.52597 21.6633 2.75384 21.8832 3.03557C22.1032 3.31731 22.256 3.64548 22.3301 3.99515C22.4042 4.34482 22.3976 4.70678 22.3108 5.05351L20.5477 12.1059C20.4206 12.6148 20.127 13.0666 19.7136 13.3894C19.3001 13.7122 18.7907 13.8875 18.2662 13.8874H9.08137C8.01127 13.8875 6.97313 13.5227 6.13839 12.8531C5.30365 12.1836 4.72225 11.2493 4.4902 10.2047L2.95696 3.3063H1.54965Z" fill="#181725"/>
</svg>
